<svg width="287" height="46" viewBox="0 0 287 46" fill="none" xmlns="http://www.w3.org/2000/svg">
<path d="M13.9 0.399902L17.9 4.19989C19.4 5.59989 20.2 7.4999 20.2 9.5999C20.2 11.5999 21 13.4999 22.4 14.8999L22.9 15.3999L27.5 0.499893" fill="url(#paint0_linear_160_549)"/>
<path d="M0.299988 13.7L5.79999 13.5C7.79999 13.4 9.79998 14.2 11.2 15.6C12.6 17 14.5 17.7 16.5 17.7H17.2L9.79999 4" fill="url(#paint1_linear_160_549)"/>
<path d="M0.300003 32.7L4 28.7C5.4 27.2 7.3 26.3 9.3 26.3C11.3 26.3 13.1 25.4 14.5 24L15 23.5L0 19.2" fill="url(#paint2_linear_160_549)"/>
<path d="M13.9 45.8999L13.6 40.3999C13.5 38.3999 14.2 36.3999 15.6 34.8999C16.9 33.4999 17.7 31.4999 17.6 29.5999V28.8999L4 36.5999" fill="url(#paint3_linear_160_549)"/>
<path d="M32.9 45.4999L28.8 41.8999C27.3 40.5999 26.4 38.6999 26.3 36.5999C26.2 34.5999 25.3 32.7999 23.9 31.3999L23.4 30.8999L19.4 45.9999" fill="url(#paint4_linear_160_549)"/>
<path d="M45.9 31.6001L40.4 32.0001C38.4 32.2001 36.4 31.5001 34.9 30.1001C33.4 28.8001 31.5 28.1001 29.5 28.2001H28.8L36.8 41.6001" fill="url(#paint5_linear_160_549)"/>
<path d="M45 12.7L41.5 16.9C40.2 18.4 38.3 19.4 36.3 19.5C34.3 19.6 32.5 20.5 31.2 22L30.8 22.5L46 26.1" fill="url(#paint6_linear_160_549)"/>
<path d="M30.9 0L31.4 5.5C31.6 7.5 31 9.50001 29.6 11.1C28.3 12.6 27.7 14.5 27.8 16.5L27.9 17.2L41.1 8.90001" fill="url(#paint7_linear_160_549)"/>
<path d="M75.5455 18.5H72.7273C72.5606 17.6894 72.2689 16.9773 71.8523 16.3636C71.4432 15.75 70.9432 15.2348 70.3523 14.8182C69.7689 14.3939 69.1212 14.0758 68.4091 13.8636C67.697 13.6515 66.9545 13.5455 66.1818 13.5455C64.7727 13.5455 63.4962 13.9015 62.3523 14.6136C61.2159 15.3258 60.3106 16.375 59.6364 17.7614C58.9697 19.1477 58.6364 20.8485 58.6364 22.8636C58.6364 24.8788 58.9697 26.5795 59.6364 27.9659C60.3106 29.3523 61.2159 30.4015 62.3523 31.1136C63.4962 31.8258 64.7727 32.1818 66.1818 32.1818C66.9545 32.1818 67.697 32.0758 68.4091 31.8636C69.1212 31.6515 69.7689 31.3371 70.3523 30.9205C70.9432 30.4962 71.4432 29.9773 71.8523 29.3636C72.2689 28.7424 72.5606 28.0303 72.7273 27.2273H75.5455C75.3333 28.4167 74.947 29.4811 74.3864 30.4205C73.8258 31.3598 73.1288 32.1591 72.2955 32.8182C71.4621 33.4697 70.5265 33.9659 69.4886 34.3068C68.4583 34.6477 67.3561 34.8182 66.1818 34.8182C64.197 34.8182 62.4318 34.3333 60.8864 33.3636C59.3409 32.3939 58.125 31.0152 57.2386 29.2273C56.3523 27.4394 55.9091 25.3182 55.9091 22.8636C55.9091 20.4091 56.3523 18.2879 57.2386 16.5C58.125 14.7121 59.3409 13.3333 60.8864 12.3636C62.4318 11.3939 64.197 10.9091 66.1818 10.9091C67.3561 10.9091 68.4583 11.0795 69.4886 11.4205C70.5265 11.7614 71.4621 12.2614 72.2955 12.9205C73.1288 13.572 73.8258 14.3674 74.3864 15.3068C74.947 16.2386 75.3333 17.303 75.5455 18.5ZM80.0994 34.5V11.2273H82.9176V32H93.7358V34.5H80.0994ZM98.0994 34.5V11.2273H112.145V13.7273H100.918V21.5909H111.418V24.0909H100.918V32H112.327V34.5H98.0994ZM118.179 11.2273L125.088 30.8182H125.361L132.27 11.2273H135.224L126.679 34.5H123.77L115.224 11.2273H118.179ZM138.849 34.5V11.2273H152.895V13.7273H141.668V21.5909H152.168V24.0909H141.668V32H153.077V34.5H138.849ZM157.974 34.5V11.2273H165.838C167.656 11.2273 169.149 11.5379 170.315 12.1591C171.482 12.7727 172.346 13.6174 172.906 14.6932C173.467 15.7689 173.747 16.9924 173.747 18.3636C173.747 19.7348 173.467 20.9508 172.906 22.0114C172.346 23.072 171.486 23.9053 170.327 24.5114C169.168 25.1098 167.687 25.4091 165.884 25.4091H159.52V22.8636H165.793C167.035 22.8636 168.035 22.6818 168.793 22.3182C169.558 21.9545 170.111 21.4394 170.452 20.7727C170.8 20.0985 170.974 19.2955 170.974 18.3636C170.974 17.4318 170.8 16.6174 170.452 15.9205C170.103 15.2235 169.546 14.6856 168.781 14.3068C168.016 13.9205 167.005 13.7273 165.747 13.7273H160.793V34.5H157.974ZM168.929 24.0455L174.656 34.5H171.384L165.747 24.0455H168.929ZM178.443 34.5V11.2273H186.58C188.201 11.2273 189.538 11.5076 190.591 12.0682C191.644 12.6212 192.428 13.3674 192.943 14.3068C193.458 15.2386 193.716 16.2727 193.716 17.4091C193.716 18.4091 193.538 19.2348 193.182 19.8864C192.833 20.5379 192.371 21.053 191.795 21.4318C191.227 21.8106 190.61 22.0909 189.943 22.2727V22.5C190.655 22.5455 191.371 22.7955 192.091 23.25C192.811 23.7045 193.413 24.3561 193.898 25.2045C194.383 26.053 194.625 27.0909 194.625 28.3182C194.625 29.4848 194.36 30.5341 193.83 31.4659C193.299 32.3977 192.462 33.1364 191.318 33.6818C190.174 34.2273 188.686 34.5 186.852 34.5H178.443ZM181.261 32H186.852C188.693 32 190 31.6439 190.773 30.9318C191.553 30.2121 191.943 29.3409 191.943 28.3182C191.943 27.5303 191.742 26.803 191.341 26.1364C190.939 25.4621 190.367 24.9242 189.625 24.5227C188.883 24.1136 188.004 23.9091 186.989 23.9091H181.261V32ZM181.261 21.4545H186.489C187.337 21.4545 188.102 21.2879 188.784 20.9545C189.473 20.6212 190.019 20.1515 190.42 19.5455C190.83 18.9394 191.034 18.2273 191.034 17.4091C191.034 16.3864 190.678 15.5189 189.966 14.8068C189.254 14.0871 188.125 13.7273 186.58 13.7273H181.261V21.4545ZM218.892 22.8636C218.892 25.3182 218.449 27.4394 217.562 29.2273C216.676 31.0152 215.46 32.3939 213.915 33.3636C212.369 34.3333 210.604 34.8182 208.619 34.8182C206.634 34.8182 204.869 34.3333 203.324 33.3636C201.778 32.3939 200.563 31.0152 199.676 29.2273C198.79 27.4394 198.347 25.3182 198.347 22.8636C198.347 20.4091 198.79 18.2879 199.676 16.5C200.563 14.7121 201.778 13.3333 203.324 12.3636C204.869 11.3939 206.634 10.9091 208.619 10.9091C210.604 10.9091 212.369 11.3939 213.915 12.3636C215.46 13.3333 216.676 14.7121 217.562 16.5C218.449 18.2879 218.892 20.4091 218.892 22.8636ZM216.165 22.8636C216.165 20.8485 215.828 19.1477 215.153 17.7614C214.487 16.375 213.581 15.3258 212.438 14.6136C211.301 13.9015 210.028 13.5455 208.619 13.5455C207.21 13.5455 205.934 13.9015 204.79 14.6136C203.653 15.3258 202.748 16.375 202.074 17.7614C201.407 19.1477 201.074 20.8485 201.074 22.8636C201.074 24.8788 201.407 26.5795 202.074 27.9659C202.748 29.3523 203.653 30.4015 204.79 31.1136C205.934 31.8258 207.21 32.1818 208.619 32.1818C210.028 32.1818 211.301 31.8258 212.438 31.1136C213.581 30.4015 214.487 29.3523 215.153 27.9659C215.828 26.5795 216.165 24.8788 216.165 22.8636ZM243.267 22.8636C243.267 25.3182 242.824 27.4394 241.938 29.2273C241.051 31.0152 239.835 32.3939 238.29 33.3636C236.744 34.3333 234.979 34.8182 232.994 34.8182C231.009 34.8182 229.244 34.3333 227.699 33.3636C226.153 32.3939 224.938 31.0152 224.051 29.2273C223.165 27.4394 222.722 25.3182 222.722 22.8636C222.722 20.4091 223.165 18.2879 224.051 16.5C224.938 14.7121 226.153 13.3333 227.699 12.3636C229.244 11.3939 231.009 10.9091 232.994 10.9091C234.979 10.9091 236.744 11.3939 238.29 12.3636C239.835 13.3333 241.051 14.7121 241.938 16.5C242.824 18.2879 243.267 20.4091 243.267 22.8636ZM240.54 22.8636C240.54 20.8485 240.203 19.1477 239.528 17.7614C238.862 16.375 237.956 15.3258 236.812 14.6136C235.676 13.9015 234.403 13.5455 232.994 13.5455C231.585 13.5455 230.309 13.9015 229.165 14.6136C228.028 15.3258 227.123 16.375 226.449 17.7614C225.782 19.1477 225.449 20.8485 225.449 22.8636C225.449 24.8788 225.782 26.5795 226.449 27.9659C227.123 29.3523 228.028 30.4015 229.165 31.1136C230.309 31.8258 231.585 32.1818 232.994 32.1818C234.403 32.1818 235.676 31.8258 236.812 31.1136C237.956 30.4015 238.862 29.3523 239.528 27.9659C240.203 26.5795 240.54 24.8788 240.54 22.8636ZM248.006 34.5V11.2273H250.824V22.7727H251.097L261.551 11.2273H265.233L255.46 21.7273L265.233 34.5H261.824L253.733 23.6818L250.824 26.9545V34.5H248.006ZM281.608 17.0455C281.472 15.8939 280.919 15 279.949 14.3636C278.979 13.7273 277.79 13.4091 276.381 13.4091C275.35 13.4091 274.449 13.5758 273.676 13.9091C272.911 14.2424 272.313 14.7008 271.881 15.2841C271.456 15.8674 271.244 16.5303 271.244 17.2727C271.244 17.8939 271.392 18.428 271.688 18.875C271.991 19.3144 272.377 19.6818 272.847 19.9773C273.316 20.2652 273.809 20.5038 274.324 20.6932C274.839 20.875 275.312 21.0227 275.744 21.1364L278.108 21.7727C278.714 21.9318 279.388 22.1515 280.131 22.4318C280.881 22.7121 281.597 23.0947 282.278 23.5795C282.968 24.0568 283.536 24.6705 283.983 25.4205C284.43 26.1705 284.653 27.0909 284.653 28.1818C284.653 29.4394 284.324 30.5758 283.665 31.5909C283.013 32.6061 282.059 33.4129 280.801 34.0114C279.551 34.6098 278.032 34.9091 276.244 34.9091C274.578 34.9091 273.134 34.6402 271.915 34.1023C270.703 33.5644 269.748 32.8144 269.051 31.8523C268.362 30.8902 267.972 29.7727 267.881 28.5H270.79C270.866 29.3788 271.161 30.1061 271.676 30.6818C272.199 31.25 272.858 31.6742 273.653 31.9545C274.456 32.2273 275.32 32.3636 276.244 32.3636C277.32 32.3636 278.286 32.1894 279.142 31.8409C279.998 31.4848 280.676 30.9924 281.176 30.3636C281.676 29.7273 281.926 28.9848 281.926 28.1364C281.926 27.3636 281.71 26.7348 281.278 26.25C280.847 25.7652 280.278 25.3712 279.574 25.0682C278.869 24.7652 278.108 24.5 277.29 24.2727L274.426 23.4545C272.608 22.9318 271.169 22.1856 270.108 21.2159C269.047 20.2462 268.517 18.9773 268.517 17.4091C268.517 16.1061 268.869 14.9697 269.574 14C270.286 13.0227 271.241 12.2652 272.438 11.7273C273.642 11.1818 274.987 10.9091 276.472 10.9091C277.972 10.9091 279.305 11.178 280.472 11.7159C281.638 12.2462 282.563 12.9735 283.244 13.8977C283.934 14.822 284.297 15.8712 284.335 17.0455H281.608Z" fill="white"/>
<defs>
<linearGradient id="paint0_linear_160_549" x1="24.5435" y1="1.87446" x2="16.0505" y2="14.5031" gradientUnits="userSpaceOnUse">
<stop stop-color="#E46129"/>
<stop offset="1" stop-color="#6820DE"/>
</linearGradient>
<linearGradient id="paint1_linear_160_549" x1="13.5261" y1="5.34676" x2="6.87193" y2="18.8085" gradientUnits="userSpaceOnUse">
<stop stop-color="#E46129"/>
<stop offset="1" stop-color="#6820DE"/>
</linearGradient>
<linearGradient id="paint2_linear_160_549" x1="11.7391" y1="20.5271" x2="4.77737" y2="33.2129" gradientUnits="userSpaceOnUse">
<stop stop-color="#E46129"/>
<stop offset="1" stop-color="#6820DE"/>
</linearGradient>
<linearGradient id="paint3_linear_160_549" x1="14.6501" y1="30.5711" x2="4.63057" y2="43.7248" gradientUnits="userSpaceOnUse">
<stop stop-color="#E46129"/>
<stop offset="1" stop-color="#6820DE"/>
</linearGradient>
<linearGradient id="paint4_linear_160_549" x1="29.9652" y1="32.3843" x2="21.371" y2="44.9855" gradientUnits="userSpaceOnUse">
<stop stop-color="#E46129"/>
<stop offset="1" stop-color="#6820DE"/>
</linearGradient>
<linearGradient id="paint5_linear_160_549" x1="42.1826" y1="29.5089" x2="35.8018" y2="42.8535" gradientUnits="userSpaceOnUse">
<stop stop-color="#E46129"/>
<stop offset="1" stop-color="#6820DE"/>
</linearGradient>
<linearGradient id="paint6_linear_160_549" x1="42.6956" y1="14.0172" x2="35.8628" y2="26.7283" gradientUnits="userSpaceOnUse">
<stop stop-color="#E46129"/>
<stop offset="1" stop-color="#6820DE"/>
</linearGradient>
<linearGradient id="paint7_linear_160_549" x1="38.2064" y1="1.69082" x2="27.983" y2="14.6659" gradientUnits="userSpaceOnUse">
<stop stop-color="#E46129"/>
<stop offset="1" stop-color="#6820DE"/>
</linearGradient>
</defs>
</svg>
